<?xml version="1.0" encoding="UTF-8"?>
<svg id="Layer_1" data-name="Layer 1" xmlns="http://www.w3.org/2000/svg" viewBox="0 0 513 464.43">
  <defs>
    <style>
      .cls-1 {
        fill: #fff;
      }

      .cls-2 {
        fill: #840000;
      }

      .cls-3 {
        fill: #ff7517;
      }

      .cls-4 {
        fill: none;
        stroke: #840000;
        stroke-miterlimit: 10;
      }
    </style>
  </defs>
  <g>
    <rect class="cls-2" x="6.5" y="7.86" width="500" height="448.72" rx="12" ry="12"/>
    <g>
      <path class="cls-3" d="M225.25,419.83c-12.41-29.65,6.55-60.47,27.47-84.35l-27.01-27.38c-1.55.12-5.05,3.36-6.34,4.7l-26.81,27.65c-6.47,6.67-14.35,12.81-22.68,17.27-15.86,8.5-36.5,2.59-43.2-14.93-1.74-4.54-1.69-15.48.14-19.94,4.44-10.83,12.76-17.93,21.25-24.93l10.96-9.03,25.49-21.83-20.48-17.79-8.89-7.29c-11.67,9.29-23.58,17.09-37.45,23.68-27.94,13.28-60.9,11.87-75.8-12.09-9.73-15.65-5.71-34.36,8.25-45.72,28.86-23.49,75.84-1.59,104.14,24.34l29.15-28.54-24.53-21.37c-9.27-8.08-19.35-15.05-27.5-24.54-7.39-8.6-10.8-22.09-5.38-32.32,6.89-12.99,23.84-17.02,37.1-11.33,21.78,9.34,41.56,33.67,58.09,51.68l29.47-30.21c-26.02-28.65-42.46-73.48-18.4-101.96,9.87-11.68,24.67-16.08,38.48-8.9,26.36,13.71,26.33,49.04,13.07,76.12-6.39,13.05-14.41,23.23-23.85,35.21l30.69,31.61,22.27-23.77c21.06-22.48,48.41-44.78,68.86-22.55,8.76,9.52,9.08,24.57-.25,35.4-11.33,13.15-24.93,24.14-38.42,35.4l-13.87,11.57,29.16,28.34c13.04-10.19,25.53-19.37,40.22-26.49,27.65-13.39,63.08-9.5,75.07,16.83,9.32,20.44-6.71,44.44-31.74,50.17-30.59,6.99-59.23-11.64-83.21-30.89l-10.39,9.72-17.56,16.48,24.1,21.38c19.02,16.87,39.79,31.19,32.04,53.66-2.74,7.94-10.96,16.21-21.73,17.85-27.09,4.13-52.52-30.75-74.02-53.13l-29.45,28.75c13.78,15.75,25,31.59,30.03,51.94,6.57,26.62-7.09,52.86-32.43,54.86-14.66,1.16-28.2-9.08-34.16-23.31ZM266.41,116.26c16.65-22.62,26.16-57.06,10.19-77.65-4.5-5.81-12.77-9.93-19.42-9.88-6.27.05-14.1,3.62-18.46,8.76-22.92,27-4.5,66.62,16.79,93.59l10.91-14.82ZM216.47,170.85l-17.13-18.91c-10.54-11.64-22.38-22.31-35.98-29.82-11.05-6.11-25.04-3.49-30.94,8.03-5.65,11.03,3.62,23.8,15.21,33.53,13.69,11.5,27.32,23.56,40.51,35.84l28.33-28.67ZM336.99,188.96l12.21-10.87c9.88-8.79,20.33-17.24,28.07-27.76,5.67-7.72,4.48-19.14-1.53-25.04-11.6-11.37-30.45-3.45-42.58,8.54l-37.91,37.49,29.14,28.99,12.61-11.36ZM256.5,202.1l29.41-29.42-30.98-31.86-28.91,29.9,30.48,31.38ZM290.48,298.88l26.97-26.13c1.1-1.07,3.74-4.67,2.69-5.63l-3.8-3.44-28.92-26.11,32.02-32.24-29.16-28.81-34.05,33.78-35.12-34.81-29.09,28.84,32.58,31.87-31.17,30.49,31.48,31.13,10.33-11.2,17.59-18.49c1.25-1.31,5.83-1.52,7-.33l30.66,31.08ZM150.53,236.83l-16.28-12c-22.71-16.73-62.54-29.25-82.13-8.79-10.39,10.86-9.72,29.69,1.09,39.55,27.59,25.13,67.55,4.63,97.32-18.76ZM430.47,267.6c12.99-2.79,24.03-5.47,31.65-14.47,10.82-12.77,8.56-30.43-5.23-40.11-27.75-19.48-67.51.93-92.6,23.54,19.08,15.82,42.03,29.77,66.18,31.04ZM189.11,263.25l27.04-26.79-28.3-27.76-28.2,27.96,20.19,17.29,9.28,9.31ZM354.63,236.29l-10.37-8.44-20.09-19.13-27.92,27.72,9.01,8.18,21.36,19.38,28.01-27.71ZM166.79,351.89c8.75-5.8,16.65-11.23,23.24-18.05l30.16-31.21-31.09-30.9-14.06,12.84-30.88,25.71c-6.39,5.32-12.97,16.42-11.9,24.84,2.11,16.6,19.98,22.67,34.54,16.76ZM257.71,331.4l28.64-28.58-11.81-11.2-17.63-18.5-27.95,28.78,19.48,19.68,9.27,9.82ZM378.23,344.57c5.13-8.33,3.7-19.67-2.57-25.97l-17.03-17.1-32.7-28.34-30.64,30.27,26.62,26.86c8.37,8.44,17.74,16.11,28.47,21.54,9.26,4.69,22.07,2.13,27.86-7.26ZM264.09,435.15c16.94-6.23,23.17-22.4,21.65-38.22-3.25-21.43-15.62-38.82-28.58-55.78-24.76,26.35-41.35,65.69-16.34,87.96,5.67,5.05,15.75,8.81,23.27,6.05Z"/>
      <circle class="cls-1" cx="258.11" cy="237.64" r="6.01"/>
      <circle class="cls-1" cx="344.33" cy="153.2" r="6.01"/>
      <circle class="cls-1" cx="344.33" cy="325.39" r="6.01"/>
      <circle class="cls-1" cx="162.01" cy="325.39" r="6.01"/>
      <circle class="cls-1" cx="162.01" cy="153.2" r="6.01"/>
      <circle class="cls-1" cx="256.47" cy="63.79" r="6.01"/>
      <circle class="cls-1" cx="256.47" cy="402.94" r="6.01"/>
      <circle class="cls-1" cx="426.64" cy="237.64" r="6.01"/>
      <circle class="cls-1" cx="81.92" cy="237.64" r="6.01"/>
    </g>
  </g>
  <rect class="cls-4" x=".5" y=".5" width="512" height="463.43" rx="12" ry="12"/>
</svg>