<?xml version="1.0" encoding="UTF-8"?>
<svg id="Layer_1" xmlns="http://www.w3.org/2000/svg" version="1.1" viewBox="0 0 22.81 22.51">
  <!-- Generator: Adobe Illustrator 30.6.0, SVG Export Plug-In . SVG Version: 2.1.4 Build 109)  -->
  <defs>
    <style>
      .st0 {
        stroke-width: .5px;
      }

      .st0, .st1 {
        fill: none;
        stroke: #000;
      }

      .st0, .st1, .st2 {
        stroke-miterlimit: 10;
      }

      .st1 {
        stroke-width: .2px;
      }

      .st2 {
        fill: #fff;
        stroke: #351f07;
        stroke-width: .8px;
      }
    </style>
  </defs>
  <g>
    <rect class="st2" x="2.37" y=".4" width="20.04" height="20.04" rx="3.42" ry="3.42"/>
    <g>
      <g>
        <g>
          <circle class="st0" cx="17.64" cy="4.73" r=".9"/>
          <path class="st1" d="M19.6,5.55c-.71.96-4.17,3.96-5.09,3.28s1.06-4.78,1.76-5.74,2.03-1.19,2.95-.51,1.09,2.01.38,2.96Z"/>
        </g>
        <g>
          <circle class="st0" cx="10.93" cy="13.8" r=".9"/>
          <path class="st1" d="M9.18,12.69c.71-.96,4.41-4.53,5.33-3.85s-1.3,5.35-2.01,6.31-2.03,1.19-2.95.51-1.09-2.01-.38-2.96Z"/>
        </g>
      </g>
      <g>
        <g>
          <circle class="st0" cx="19.14" cy="12.22" r=".9"/>
          <path class="st1" d="M17.88,13.85c-.96-.71-3.94-4.06-3.26-4.98s4.76.95,5.71,1.65,1.19,2.03.51,2.95-2.01,1.09-2.96.38Z"/>
        </g>
        <g>
          <circle class="st0" cx="9.8" cy="5.31" r=".9"/>
          <path class="st1" d="M11.14,3.73c.96.71,4.04,4.26,3.36,5.18s-4.86-1.15-5.82-1.86-1.19-2.03-.51-2.95,2.01-1.09,2.96-.38Z"/>
        </g>
      </g>
    </g>
  </g>
  <g>
    <rect class="st2" x=".83" y="4.13" width="17.55" height="17.55" rx="3.42" ry="3.42" transform="translate(-1.05 .85) rotate(-4.82)"/>
    <g>
      <g>
        <g>
          <circle class="st0" cx="9.29" cy="8.24" r=".79"/>
          <path class="st1" d="M11.06,7.65c.09,1.04-.44,5.02-1.44,5.11s-2.08-3.75-2.17-4.79.64-1.95,1.64-2.04,1.88.69,1.97,1.73Z"/>
        </g>
        <g>
          <circle class="st0" cx="10.15" cy="18.09" r=".79"/>
          <path class="st1" d="M8.36,18.38c-.09-1.04.27-5.53,1.26-5.62s2.25,4.27,2.34,5.31-.64,1.95-1.64,2.04-1.88-.69-1.97-1.73Z"/>
        </g>
      </g>
      <g>
        <g>
          <circle class="st0" cx="14.62" cy="12.29" r=".79"/>
          <path class="st1" d="M14.74,14.1c-1.04.09-4.94-.38-5.02-1.38s3.67-2.14,4.71-2.23,1.95.64,2.04,1.64-.69,1.88-1.73,1.97Z"/>
        </g>
        <g>
          <circle class="st0" cx="4.48" cy="13.17" r=".79"/>
          <path class="st1" d="M4.45,11.36c1.04-.09,5.12.46,5.21,1.45s-3.85,2.06-4.89,2.16-1.95-.64-2.04-1.64.69-1.88,1.73-1.97Z"/>
        </g>
      </g>
    </g>
  </g>
</svg>